<svg xmlns="http://www.w3.org/2000/svg" xmlns:xlink="http://www.w3.org/1999/xlink" width="500" zoomAndPan="magnify" viewBox="0 0 375 374.999991" height="500" preserveAspectRatio="xMidYMid meet" version="1.0"><defs><g/></defs><path fill="#86b817" d="M 273.097656 95.046875 C 274.5625 104.332031 274.855469 114.054688 273.683594 123.847656 C 266.960938 181.230469 214.984375 222.242188 157.601562 215.515625 C 111.257812 210.03125 75.585938 175.089844 67.105469 131.597656 C 67.179688 131.523438 182.820312 152.648438 273.097656 95.046875 M 31.945312 106.671875 C 0 88.175781 27.046875 65.296875 57.75 63.835938 C 49.855469 66.390625 14.691406 90.148438 64.839844 104.332031 C 65.058594 104.402344 65.351562 104.476562 65.570312 104.550781 C 65.714844 102.871094 65.863281 101.1875 66.007812 99.433594 C 72.734375 42.050781 124.707031 1.042969 182.089844 7.765625 C 227.632812 13.101562 262.867188 47.019531 272.074219 89.417969 C 251.316406 103.527344 208.625 116.101562 164.253906 120.707031 C 111.988281 126.113281 57.238281 121.289062 31.945312 106.671875 Z M 31.945312 106.671875 " fill-opacity="1" fill-rule="evenodd"/><path fill="#86b817" d="M 300.949219 30.5 C 311.621094 36.277344 328.875 47.386719 335.746094 44.023438 C 341.007812 41.390625 346.34375 38.761719 351.679688 36.128906 C 368.714844 27.796875 375 41.902344 360.453125 51.699219 L 347.074219 61.054688 C 340.789062 65.441406 341.667969 83.71875 342.105469 95.851562 C 342.324219 101.261719 340.277344 104.257812 337.574219 106.160156 C 336.183594 107.109375 335.527344 106.890625 335.085938 105.28125 C 332.308594 94.609375 329.605469 83.9375 326.828125 73.265625 C 326.316406 71.144531 325.65625 70.265625 323.539062 71.289062 C 316.082031 74.945312 308.625 78.527344 301.167969 82.183594 C 300.585938 82.472656 300.292969 82.765625 300.4375 83.425781 C 301.390625 90.441406 300.4375 97.824219 295.6875 100.457031 C 294.589844 101.042969 293.933594 101.113281 293.714844 99.652344 C 293.054688 95.265625 292.910156 89.492188 292.179688 85.472656 C 288.960938 86.347656 287.28125 83.644531 289.179688 81.160156 L 277.339844 74.871094 C 274.632812 73.410156 276.167969 72.019531 278.289062 71.363281 C 282.820312 69.972656 289.253906 72.09375 294.371094 74.871094 C 295.175781 75.3125 295.613281 75.382812 296.34375 74.800781 L 316.960938 58.277344 C 318.640625 56.890625 318.203125 56.378906 316.738281 55.207031 L 289.328125 32.839844 C 287.792969 31.597656 288.230469 30.792969 289.984375 30.0625 C 293.492188 28.601562 296.492188 28.015625 300.949219 30.5 " fill-opacity="1" fill-rule="evenodd"/><g fill="#86b817" fill-opacity="1"><g transform="translate(0.128911, 284.559663)"><g><path d="M 37.21875 -41.046875 C 36.945312 -37.367188 36.8125 -34.082031 36.8125 -31.1875 C 36.8125 -29.375 36.867188 -27.90625 36.984375 -26.78125 L 35.65625 -26.78125 C 34.726562 -31.53125 33.460938 -34.867188 31.859375 -36.796875 C 30.253906 -38.734375 28.0625 -39.703125 25.28125 -39.703125 L 23.9375 -39.703125 L 23.9375 -6.609375 C 23.9375 -4.984375 24.097656 -3.800781 24.421875 -3.0625 C 24.753906 -2.332031 25.335938 -1.84375 26.171875 -1.59375 C 27.003906 -1.34375 28.328125 -1.195312 30.140625 -1.15625 L 30.140625 0 C 25.273438 -0.113281 21.601562 -0.171875 19.125 -0.171875 C 16.695312 -0.171875 13.160156 -0.113281 8.515625 0 L 8.515625 -1.15625 C 10.335938 -1.195312 11.660156 -1.34375 12.484375 -1.59375 C 13.316406 -1.84375 13.894531 -2.332031 14.21875 -3.0625 C 14.550781 -3.800781 14.71875 -4.984375 14.71875 -6.609375 L 14.71875 -39.703125 L 13.453125 -39.703125 C 11.597656 -39.703125 10.019531 -39.296875 8.71875 -38.484375 C 7.425781 -37.679688 6.316406 -36.34375 5.390625 -34.46875 C 4.460938 -32.59375 3.671875 -30.03125 3.015625 -26.78125 L 1.6875 -26.78125 C 1.800781 -27.90625 1.859375 -29.375 1.859375 -31.1875 C 1.859375 -34.082031 1.722656 -37.367188 1.453125 -41.046875 C 4.960938 -40.929688 10.929688 -40.875 19.359375 -40.875 C 27.785156 -40.875 33.738281 -40.929688 37.21875 -41.046875 Z M 37.21875 -41.046875 "/></g></g></g><g fill="#86b817" fill-opacity="1"><g transform="translate(38.854696, 284.559663)"><g><path d="M 41.28125 -2.546875 C 40.226562 -1.347656 39.101562 -0.488281 37.90625 0.03125 C 36.707031 0.550781 35.257812 0.8125 33.5625 0.8125 C 31.320312 0.8125 29.550781 0.335938 28.25 -0.609375 C 26.957031 -1.554688 26.117188 -3.171875 25.734375 -5.453125 L 24.6875 -11.25 C 24.1875 -14.070312 23.578125 -16.148438 22.859375 -17.484375 C 22.148438 -18.816406 20.960938 -19.484375 19.296875 -19.484375 L 15.53125 -19.484375 L 15.53125 -6.140625 C 15.53125 -4.671875 15.632812 -3.609375 15.84375 -2.953125 C 16.0625 -2.296875 16.457031 -1.851562 17.03125 -1.625 C 17.613281 -1.394531 18.566406 -1.238281 19.890625 -1.15625 L 19.890625 0 C 17.796875 -0.113281 14.875 -0.171875 11.125 -0.171875 C 6.988281 -0.171875 3.9375 -0.113281 1.96875 0 L 1.96875 -1.15625 C 3.25 -1.238281 4.1875 -1.394531 4.78125 -1.625 C 5.382812 -1.851562 5.789062 -2.296875 6 -2.953125 C 6.207031 -3.609375 6.3125 -4.671875 6.3125 -6.140625 L 6.3125 -34.890625 C 6.3125 -36.359375 6.207031 -37.421875 6 -38.078125 C 5.789062 -38.742188 5.382812 -39.191406 4.78125 -39.421875 C 4.1875 -39.648438 3.25 -39.800781 1.96875 -39.875 L 1.96875 -41.046875 C 3.9375 -40.929688 6.875 -40.875 10.78125 -40.875 L 17.21875 -40.921875 C 17.988281 -40.960938 18.878906 -40.984375 19.890625 -40.984375 C 25.222656 -40.984375 29.226562 -40.113281 31.90625 -38.375 C 34.59375 -36.632812 35.9375 -34.140625 35.9375 -30.890625 C 35.9375 -28.148438 34.929688 -25.734375 32.921875 -23.640625 C 30.910156 -21.554688 27.585938 -20.242188 22.953125 -19.703125 C 26.429688 -19.398438 29.019531 -18.648438 30.71875 -17.453125 C 32.425781 -16.253906 33.53125 -14.457031 34.03125 -12.0625 L 35.359375 -6.09375 C 35.671875 -4.539062 36.03125 -3.453125 36.4375 -2.828125 C 36.84375 -2.210938 37.410156 -1.90625 38.140625 -1.90625 C 38.609375 -1.945312 39.003906 -2.0625 39.328125 -2.25 C 39.660156 -2.445312 40.039062 -2.78125 40.46875 -3.25 Z M 19.125 -39.875 C 18.082031 -39.875 17.316406 -39.738281 16.828125 -39.46875 C 16.347656 -39.207031 16.007812 -38.726562 15.8125 -38.03125 C 15.625 -37.332031 15.53125 -36.285156 15.53125 -34.890625 L 15.53125 -20.640625 L 18.03125 -20.640625 C 21.195312 -20.640625 23.367188 -21.476562 24.546875 -23.15625 C 25.722656 -24.84375 26.3125 -27.210938 26.3125 -30.265625 C 26.3125 -33.429688 25.75 -35.820312 24.625 -37.4375 C 23.507812 -39.0625 21.675781 -39.875 19.125 -39.875 Z M 19.125 -39.875 "/></g></g></g><g fill="#86b817" fill-opacity="1"><g transform="translate(78.97182, 284.559663)"><g><path d="M 35.421875 -4.875 C 35.921875 -3.59375 36.5 -2.660156 37.15625 -2.078125 C 37.8125 -1.503906 38.453125 -1.195312 39.078125 -1.15625 L 39.078125 0 C 36.753906 -0.113281 33.816406 -0.171875 30.265625 -0.171875 C 26.316406 -0.171875 23.378906 -0.113281 21.453125 0 L 21.453125 -1.15625 C 22.921875 -1.238281 23.960938 -1.421875 24.578125 -1.703125 C 25.191406 -1.992188 25.5 -2.507812 25.5 -3.25 C 25.5 -3.945312 25.269531 -4.875 24.8125 -6.03125 L 21.328125 -15.53125 L 8.703125 -15.53125 L 7.1875 -11.53125 C 6.101562 -8.75 5.5625 -6.601562 5.5625 -5.09375 C 5.5625 -3.664062 5.992188 -2.671875 6.859375 -2.109375 C 7.734375 -1.554688 9.019531 -1.238281 10.71875 -1.15625 L 10.71875 0 C 8.09375 -0.113281 5.695312 -0.171875 3.53125 -0.171875 C 1.757812 -0.171875 0.289062 -0.113281 -0.875 0 L -0.875 -1.15625 C 1.019531 -1.507812 2.679688 -3.539062 4.109375 -7.25 L 17.328125 -41.15625 C 17.753906 -41.113281 18.429688 -41.09375 19.359375 -41.09375 C 20.285156 -41.09375 20.941406 -41.113281 21.328125 -41.15625 Z M 20.921875 -16.6875 L 15.1875 -32.34375 L 9.15625 -16.6875 Z M 20.921875 -16.6875 "/></g></g></g><g fill="#86b817" fill-opacity="1"><g transform="translate(117.63963, 284.559663)"><g><path d="M 34.890625 -40.875 C 36.671875 -40.875 38.140625 -40.929688 39.296875 -41.046875 L 39.296875 -39.875 C 38.335938 -39.53125 37.394531 -38.796875 36.46875 -37.671875 C 35.539062 -36.554688 34.707031 -34.992188 33.96875 -32.984375 L 21.734375 0.109375 C 21.304688 0.078125 20.628906 0.0625 19.703125 0.0625 C 18.816406 0.0625 18.160156 0.078125 17.734375 0.109375 L 2.953125 -36.171875 C 2.453125 -37.441406 1.875 -38.367188 1.21875 -38.953125 C 0.5625 -39.535156 -0.078125 -39.84375 -0.703125 -39.875 L -0.703125 -41.046875 C 1.617188 -40.929688 4.554688 -40.875 8.109375 -40.875 C 12.097656 -40.875 15.035156 -40.929688 16.921875 -41.046875 L 16.921875 -39.875 C 15.453125 -39.800781 14.410156 -39.628906 13.796875 -39.359375 C 13.179688 -39.085938 12.875 -38.546875 12.875 -37.734375 C 12.875 -37.078125 13.101562 -36.171875 13.5625 -35.015625 L 23.765625 -9.046875 L 30.890625 -28.28125 C 31.972656 -31.257812 32.515625 -33.617188 32.515625 -35.359375 C 32.515625 -36.910156 32.097656 -38.03125 31.265625 -38.71875 C 30.441406 -39.414062 29.238281 -39.800781 27.65625 -39.875 L 27.65625 -41.046875 C 30.28125 -40.929688 32.691406 -40.875 34.890625 -40.875 Z M 34.890625 -40.875 "/></g></g></g><g fill="#86b817" fill-opacity="1"><g transform="translate(156.365415, 284.559663)"><g><path d="M 33.734375 -8.8125 C 33.734375 -5.257812 33.867188 -2.320312 34.140625 0 C 31.515625 -0.113281 27.09375 -0.171875 20.875 -0.171875 C 12.445312 -0.171875 6.144531 -0.113281 1.96875 0 L 1.96875 -1.15625 C 3.25 -1.238281 4.1875 -1.394531 4.78125 -1.625 C 5.382812 -1.851562 5.789062 -2.296875 6 -2.953125 C 6.207031 -3.609375 6.3125 -4.671875 6.3125 -6.140625 L 6.3125 -34.890625 C 6.3125 -36.359375 6.207031 -37.421875 6 -38.078125 C 5.789062 -38.742188 5.382812 -39.191406 4.78125 -39.421875 C 4.1875 -39.648438 3.25 -39.800781 1.96875 -39.875 L 1.96875 -41.046875 C 6.144531 -40.929688 12.445312 -40.875 20.875 -40.875 C 26.550781 -40.875 30.585938 -40.929688 32.984375 -41.046875 C 32.710938 -37.835938 32.578125 -34.976562 32.578125 -32.46875 C 32.578125 -30.757812 32.632812 -29.441406 32.75 -28.515625 L 31.421875 -28.515625 C 30.835938 -32.648438 29.789062 -35.546875 28.28125 -37.203125 C 26.78125 -38.867188 24.65625 -39.703125 21.90625 -39.703125 L 19.53125 -39.703125 C 18.332031 -39.703125 17.460938 -39.601562 16.921875 -39.40625 C 16.378906 -39.21875 16.007812 -38.84375 15.8125 -38.28125 C 15.625 -37.726562 15.53125 -36.832031 15.53125 -35.59375 L 15.53125 -21.21875 L 17.390625 -21.21875 C 19.441406 -21.21875 21 -21.96875 22.0625 -23.46875 C 23.125 -24.976562 23.863281 -26.78125 24.28125 -28.875 L 25.625 -28.875 C 25.507812 -27.25 25.453125 -25.429688 25.453125 -23.421875 L 25.453125 -20.640625 C 25.453125 -18.671875 25.566406 -15.925781 25.796875 -12.40625 L 24.46875 -12.40625 C 23.65625 -17.507812 21.296875 -20.0625 17.390625 -20.0625 L 15.53125 -20.0625 L 15.53125 -5.453125 C 15.53125 -4.210938 15.625 -3.3125 15.8125 -2.75 C 16.007812 -2.1875 16.378906 -1.804688 16.921875 -1.609375 C 17.460938 -1.421875 18.332031 -1.328125 19.53125 -1.328125 L 22.375 -1.328125 C 25.113281 -1.328125 27.320312 -2.265625 29 -4.140625 C 30.6875 -6.015625 31.878906 -9.195312 32.578125 -13.6875 L 33.90625 -13.6875 C 33.789062 -12.40625 33.734375 -10.78125 33.734375 -8.8125 Z M 33.734375 -8.8125 "/></g></g></g><g fill="#86b817" fill-opacity="1"><g transform="translate(193.120139, 284.559663)"><g><path d="M 20.234375 -39.875 C 18.835938 -39.800781 17.820312 -39.648438 17.1875 -39.421875 C 16.550781 -39.191406 16.113281 -38.742188 15.875 -38.078125 C 15.644531 -37.421875 15.53125 -36.359375 15.53125 -34.890625 L 15.53125 -5.453125 C 15.53125 -4.210938 15.625 -3.3125 15.8125 -2.75 C 16.007812 -2.1875 16.347656 -1.804688 16.828125 -1.609375 C 17.316406 -1.421875 18.101562 -1.328125 19.1875 -1.328125 L 22.03125 -1.328125 C 24.65625 -1.328125 26.921875 -2.503906 28.828125 -4.859375 C 30.742188 -7.222656 31.992188 -10.359375 32.578125 -14.265625 L 33.90625 -14.265625 C 33.789062 -12.953125 33.734375 -11.25 33.734375 -9.15625 C 33.734375 -5.445312 33.867188 -2.394531 34.140625 0 C 31.515625 -0.113281 27.09375 -0.171875 20.875 -0.171875 C 12.445312 -0.171875 6.144531 -0.113281 1.96875 0 L 1.96875 -1.15625 C 3.25 -1.238281 4.1875 -1.394531 4.78125 -1.625 C 5.382812 -1.851562 5.789062 -2.296875 6 -2.953125 C 6.207031 -3.609375 6.3125 -4.671875 6.3125 -6.140625 L 6.3125 -34.890625 C 6.3125 -36.359375 6.207031 -37.421875 6 -38.078125 C 5.789062 -38.742188 5.382812 -39.191406 4.78125 -39.421875 C 4.1875 -39.648438 3.25 -39.800781 1.96875 -39.875 L 1.96875 -41.046875 C 3.9375 -40.929688 6.988281 -40.875 11.125 -40.875 C 15.070312 -40.875 18.109375 -40.929688 20.234375 -41.046875 Z M 20.234375 -39.875 "/></g></g></g><g fill="#86b817" fill-opacity="1"><g transform="translate(228.541478, 284.559663)"><g><path d="M 40.171875 -39.875 C 38.898438 -39.6875 37.960938 -39.359375 37.359375 -38.890625 C 36.765625 -38.429688 36.359375 -37.695312 36.140625 -36.6875 C 35.929688 -35.6875 35.828125 -34.203125 35.828125 -32.234375 L 35.828125 0.109375 L 34.4375 0.0625 L 32.875 0.109375 L 7.703125 -31.765625 L 7.703125 -9.5 C 7.703125 -7.226562 7.816406 -5.5625 8.046875 -4.5 C 8.285156 -3.4375 8.789062 -2.660156 9.5625 -2.171875 C 10.332031 -1.691406 11.585938 -1.351562 13.328125 -1.15625 L 13.328125 0 C 11.828125 -0.113281 9.742188 -0.171875 7.078125 -0.171875 C 4.953125 -0.171875 3.269531 -0.113281 2.03125 0 L 2.03125 -1.15625 C 3.300781 -1.351562 4.234375 -1.679688 4.828125 -2.140625 C 5.429688 -2.609375 5.835938 -3.34375 6.046875 -4.34375 C 6.265625 -5.351562 6.375 -6.84375 6.375 -8.8125 L 6.375 -34.890625 C 6.375 -36.359375 6.265625 -37.421875 6.046875 -38.078125 C 5.835938 -38.742188 5.429688 -39.191406 4.828125 -39.421875 C 4.234375 -39.648438 3.300781 -39.800781 2.03125 -39.875 L 2.03125 -41.046875 C 3.269531 -40.929688 4.953125 -40.875 7.078125 -40.875 C 9.003906 -40.875 10.664062 -40.929688 12.0625 -41.046875 L 34.484375 -13.390625 L 34.484375 -31.53125 C 34.484375 -33.8125 34.367188 -35.484375 34.140625 -36.546875 C 33.910156 -37.609375 33.410156 -38.378906 32.640625 -38.859375 C 31.867188 -39.347656 30.613281 -39.6875 28.875 -39.875 L 28.875 -41.046875 C 30.375 -40.929688 32.457031 -40.875 35.125 -40.875 C 37.289062 -40.875 38.972656 -40.929688 40.171875 -41.046875 Z M 40.171875 -39.875 "/></g></g></g><g fill="#86b817" fill-opacity="1"><g transform="translate(270.397784, 284.559663)"><g><path d="M 33.734375 -8.8125 C 33.734375 -5.257812 33.867188 -2.320312 34.140625 0 C 31.515625 -0.113281 27.09375 -0.171875 20.875 -0.171875 C 12.445312 -0.171875 6.144531 -0.113281 1.96875 0 L 1.96875 -1.15625 C 3.25 -1.238281 4.1875 -1.394531 4.78125 -1.625 C 5.382812 -1.851562 5.789062 -2.296875 6 -2.953125 C 6.207031 -3.609375 6.3125 -4.671875 6.3125 -6.140625 L 6.3125 -34.890625 C 6.3125 -36.359375 6.207031 -37.421875 6 -38.078125 C 5.789062 -38.742188 5.382812 -39.191406 4.78125 -39.421875 C 4.1875 -39.648438 3.25 -39.800781 1.96875 -39.875 L 1.96875 -41.046875 C 6.144531 -40.929688 12.445312 -40.875 20.875 -40.875 C 26.550781 -40.875 30.585938 -40.929688 32.984375 -41.046875 C 32.710938 -37.835938 32.578125 -34.976562 32.578125 -32.46875 C 32.578125 -30.757812 32.632812 -29.441406 32.75 -28.515625 L 31.421875 -28.515625 C 30.835938 -32.648438 29.789062 -35.546875 28.28125 -37.203125 C 26.78125 -38.867188 24.65625 -39.703125 21.90625 -39.703125 L 19.53125 -39.703125 C 18.332031 -39.703125 17.460938 -39.601562 16.921875 -39.40625 C 16.378906 -39.21875 16.007812 -38.84375 15.8125 -38.28125 C 15.625 -37.726562 15.53125 -36.832031 15.53125 -35.59375 L 15.53125 -21.21875 L 17.390625 -21.21875 C 19.441406 -21.21875 21 -21.96875 22.0625 -23.46875 C 23.125 -24.976562 23.863281 -26.78125 24.28125 -28.875 L 25.625 -28.875 C 25.507812 -27.25 25.453125 -25.429688 25.453125 -23.421875 L 25.453125 -20.640625 C 25.453125 -18.671875 25.566406 -15.925781 25.796875 -12.40625 L 24.46875 -12.40625 C 23.65625 -17.507812 21.296875 -20.0625 17.390625 -20.0625 L 15.53125 -20.0625 L 15.53125 -5.453125 C 15.53125 -4.210938 15.625 -3.3125 15.8125 -2.75 C 16.007812 -2.1875 16.378906 -1.804688 16.921875 -1.609375 C 17.460938 -1.421875 18.332031 -1.328125 19.53125 -1.328125 L 22.375 -1.328125 C 25.113281 -1.328125 27.320312 -2.265625 29 -4.140625 C 30.6875 -6.015625 31.878906 -9.195312 32.578125 -13.6875 L 33.90625 -13.6875 C 33.789062 -12.40625 33.734375 -10.78125 33.734375 -8.8125 Z M 33.734375 -8.8125 "/></g></g></g><g fill="#86b817" fill-opacity="1"><g transform="translate(307.152497, 284.559663)"><g><path d="M 16.46875 -41.796875 C 18.476562 -41.796875 20.082031 -41.601562 21.28125 -41.21875 C 22.476562 -40.832031 23.691406 -40.269531 24.921875 -39.53125 C 25.347656 -39.300781 25.722656 -39.109375 26.046875 -38.953125 C 26.378906 -38.796875 26.660156 -38.71875 26.890625 -38.71875 C 27.242188 -38.71875 27.515625 -38.921875 27.703125 -39.328125 C 27.898438 -39.734375 28.054688 -40.382812 28.171875 -41.28125 L 29.5 -41.28125 C 29.3125 -38.6875 29.21875 -34.28125 29.21875 -28.0625 L 27.890625 -28.0625 C 27.734375 -30.144531 27.257812 -32.132812 26.46875 -34.03125 C 25.675781 -35.925781 24.550781 -37.460938 23.09375 -38.640625 C 21.644531 -39.816406 19.957031 -40.40625 18.03125 -40.40625 C 16.132812 -40.40625 14.597656 -39.875 13.421875 -38.8125 C 12.242188 -37.75 11.65625 -36.304688 11.65625 -34.484375 C 11.65625 -33.140625 11.941406 -31.960938 12.515625 -30.953125 C 13.097656 -29.953125 13.910156 -29.035156 14.953125 -28.203125 C 15.992188 -27.367188 17.597656 -26.238281 19.765625 -24.8125 L 21.625 -23.53125 C 23.90625 -22.03125 25.703125 -20.71875 27.015625 -19.59375 C 28.328125 -18.46875 29.398438 -17.160156 30.234375 -15.671875 C 31.066406 -14.191406 31.484375 -12.46875 31.484375 -10.5 C 31.484375 -8.019531 30.84375 -5.9375 29.5625 -4.25 C 28.289062 -2.570312 26.5625 -1.304688 24.375 -0.453125 C 22.1875 0.390625 19.757812 0.8125 17.09375 0.8125 C 14.9375 0.8125 13.140625 0.617188 11.703125 0.234375 C 10.273438 -0.148438 8.960938 -0.671875 7.765625 -1.328125 C 6.921875 -1.867188 6.265625 -2.140625 5.796875 -2.140625 C 5.453125 -2.140625 5.179688 -1.9375 4.984375 -1.53125 C 4.796875 -1.125 4.640625 -0.476562 4.515625 0.40625 L 3.1875 0.40625 C 3.34375 -2.03125 3.421875 -7.25 3.421875 -15.25 L 4.75 -15.25 C 5.019531 -10.914062 5.984375 -7.40625 7.640625 -4.71875 C 9.304688 -2.039062 11.859375 -0.703125 15.296875 -0.703125 C 17.390625 -0.703125 19.109375 -1.257812 20.453125 -2.375 C 21.804688 -3.5 22.484375 -5.101562 22.484375 -7.1875 C 22.484375 -9.351562 21.785156 -11.207031 20.390625 -12.75 C 19.003906 -14.300781 16.804688 -16.039062 13.796875 -17.96875 C 11.472656 -19.476562 9.613281 -20.789062 8.21875 -21.90625 C 6.832031 -23.03125 5.695312 -24.351562 4.8125 -25.875 C 3.925781 -27.40625 3.484375 -29.175781 3.484375 -31.1875 C 3.484375 -33.507812 4.070312 -35.472656 5.25 -37.078125 C 6.425781 -38.679688 8 -39.867188 9.96875 -40.640625 C 11.9375 -41.410156 14.101562 -41.796875 16.46875 -41.796875 Z M 16.46875 -41.796875 "/></g></g></g><g fill="#86b817" fill-opacity="1"><g transform="translate(341.008558, 284.559663)"><g><path d="M 16.46875 -41.796875 C 18.476562 -41.796875 20.082031 -41.601562 21.28125 -41.21875 C 22.476562 -40.832031 23.691406 -40.269531 24.921875 -39.53125 C 25.347656 -39.300781 25.722656 -39.109375 26.046875 -38.953125 C 26.378906 -38.796875 26.660156 -38.71875 26.890625 -38.71875 C 27.242188 -38.71875 27.515625 -38.921875 27.703125 -39.328125 C 27.898438 -39.734375 28.054688 -40.382812 28.171875 -41.28125 L 29.5 -41.28125 C 29.3125 -38.6875 29.21875 -34.28125 29.21875 -28.0625 L 27.890625 -28.0625 C 27.734375 -30.144531 27.257812 -32.132812 26.46875 -34.03125 C 25.675781 -35.925781 24.550781 -37.460938 23.09375 -38.640625 C 21.644531 -39.816406 19.957031 -40.40625 18.03125 -40.40625 C 16.132812 -40.40625 14.597656 -39.875 13.421875 -38.8125 C 12.242188 -37.75 11.65625 -36.304688 11.65625 -34.484375 C 11.65625 -33.140625 11.941406 -31.960938 12.515625 -30.953125 C 13.097656 -29.953125 13.910156 -29.035156 14.953125 -28.203125 C 15.992188 -27.367188 17.597656 -26.238281 19.765625 -24.8125 L 21.625 -23.53125 C 23.90625 -22.03125 25.703125 -20.71875 27.015625 -19.59375 C 28.328125 -18.46875 29.398438 -17.160156 30.234375 -15.671875 C 31.066406 -14.191406 31.484375 -12.46875 31.484375 -10.5 C 31.484375 -8.019531 30.84375 -5.9375 29.5625 -4.25 C 28.289062 -2.570312 26.5625 -1.304688 24.375 -0.453125 C 22.1875 0.390625 19.757812 0.8125 17.09375 0.8125 C 14.9375 0.8125 13.140625 0.617188 11.703125 0.234375 C 10.273438 -0.148438 8.960938 -0.671875 7.765625 -1.328125 C 6.921875 -1.867188 6.265625 -2.140625 5.796875 -2.140625 C 5.453125 -2.140625 5.179688 -1.9375 4.984375 -1.53125 C 4.796875 -1.125 4.640625 -0.476562 4.515625 0.40625 L 3.1875 0.40625 C 3.34375 -2.03125 3.421875 -7.25 3.421875 -15.25 L 4.75 -15.25 C 5.019531 -10.914062 5.984375 -7.40625 7.640625 -4.71875 C 9.304688 -2.039062 11.859375 -0.703125 15.296875 -0.703125 C 17.390625 -0.703125 19.109375 -1.257812 20.453125 -2.375 C 21.804688 -3.5 22.484375 -5.101562 22.484375 -7.1875 C 22.484375 -9.351562 21.785156 -11.207031 20.390625 -12.75 C 19.003906 -14.300781 16.804688 -16.039062 13.796875 -17.96875 C 11.472656 -19.476562 9.613281 -20.789062 8.21875 -21.90625 C 6.832031 -23.03125 5.695312 -24.351562 4.8125 -25.875 C 3.925781 -27.40625 3.484375 -29.175781 3.484375 -31.1875 C 3.484375 -33.507812 4.070312 -35.472656 5.25 -37.078125 C 6.425781 -38.679688 8 -39.867188 9.96875 -40.640625 C 11.9375 -41.410156 14.101562 -41.796875 16.46875 -41.796875 Z M 16.46875 -41.796875 "/></g></g></g><g fill="#86b817" fill-opacity="1"><g transform="translate(63.585095, 343.653493)"><g><path d="M 25.953125 -8.78125 L 7.640625 -8.78125 L 3.703125 0 L 0.09375 0 L 15.109375 -32.84375 L 18.53125 -32.84375 L 33.546875 0 L 29.890625 0 Z M 24.6875 -11.59375 L 16.796875 -29.234375 L 8.921875 -11.59375 Z M 24.6875 -11.59375 "/></g></g></g><g fill="#86b817" fill-opacity="1"><g transform="translate(106.19235, 343.653493)"><g><path d="M 28.484375 -16.421875 L 31.8125 -16.421875 L 31.8125 -3.890625 C 30.28125 -2.546875 28.460938 -1.515625 26.359375 -0.796875 C 24.265625 -0.078125 22.0625 0.28125 19.75 0.28125 C 16.46875 0.28125 13.507812 -0.4375 10.875 -1.875 C 8.25 -3.3125 6.1875 -5.304688 4.6875 -7.859375 C 3.1875 -10.410156 2.4375 -13.265625 2.4375 -16.421875 C 2.4375 -19.578125 3.1875 -22.429688 4.6875 -24.984375 C 6.1875 -27.535156 8.25 -29.53125 10.875 -30.96875 C 13.507812 -32.40625 16.484375 -33.125 19.796875 -33.125 C 22.304688 -33.125 24.609375 -32.722656 26.703125 -31.921875 C 28.796875 -31.128906 30.5625 -29.953125 32 -28.390625 L 29.84375 -26.1875 C 27.25 -28.75 23.945312 -30.03125 19.9375 -30.03125 C 17.28125 -30.03125 14.878906 -29.441406 12.734375 -28.265625 C 10.597656 -27.097656 8.914062 -25.472656 7.6875 -23.390625 C 6.46875 -21.304688 5.859375 -18.984375 5.859375 -16.421875 C 5.859375 -13.859375 6.46875 -11.539062 7.6875 -9.46875 C 8.914062 -7.40625 10.59375 -5.78125 12.71875 -4.59375 C 14.84375 -3.40625 17.234375 -2.8125 19.890625 -2.8125 C 23.273438 -2.8125 26.140625 -3.65625 28.484375 -5.34375 Z M 28.484375 -16.421875 "/></g></g></g><g fill="#86b817" fill-opacity="1"><g transform="translate(151.427225, 343.653493)"><g><path d="M 28.578125 -3 L 28.578125 0 L 5.34375 0 L 5.34375 -32.84375 L 27.875 -32.84375 L 27.875 -29.84375 L 8.828125 -29.84375 L 8.828125 -18.15625 L 25.8125 -18.15625 L 25.8125 -15.203125 L 8.828125 -15.203125 L 8.828125 -3 Z M 28.578125 -3 "/></g></g></g><g fill="#86b817" fill-opacity="1"><g transform="translate(191.782237, 343.653493)"><g><path d="M 32.796875 -32.84375 L 32.796875 0 L 29.9375 0 L 8.828125 -26.65625 L 8.828125 0 L 5.34375 0 L 5.34375 -32.84375 L 8.21875 -32.84375 L 29.375 -6.1875 L 29.375 -32.84375 Z M 32.796875 -32.84375 "/></g></g></g><g fill="#86b817" fill-opacity="1"><g transform="translate(238.89399, 343.653493)"><g><path d="M 19.609375 0.28125 C 16.359375 0.28125 13.425781 -0.4375 10.8125 -1.875 C 8.195312 -3.3125 6.144531 -5.304688 4.65625 -7.859375 C 3.175781 -10.410156 2.4375 -13.265625 2.4375 -16.421875 C 2.4375 -19.578125 3.175781 -22.429688 4.65625 -24.984375 C 6.144531 -27.535156 8.203125 -29.53125 10.828125 -30.96875 C 13.460938 -32.40625 16.40625 -33.125 19.65625 -33.125 C 22.09375 -33.125 24.34375 -32.71875 26.40625 -31.90625 C 28.476562 -31.09375 30.234375 -29.90625 31.671875 -28.34375 L 29.46875 -26.140625 C 26.90625 -28.734375 23.664062 -30.03125 19.75 -30.03125 C 17.15625 -30.03125 14.796875 -29.4375 12.671875 -28.25 C 10.546875 -27.0625 8.878906 -25.429688 7.671875 -23.359375 C 6.460938 -21.296875 5.859375 -18.984375 5.859375 -16.421875 C 5.859375 -13.859375 6.460938 -11.539062 7.671875 -9.46875 C 8.878906 -7.40625 10.546875 -5.78125 12.671875 -4.59375 C 14.796875 -3.40625 17.15625 -2.8125 19.75 -2.8125 C 23.695312 -2.8125 26.9375 -4.125 29.46875 -6.75 L 31.671875 -4.546875 C 30.234375 -2.984375 28.472656 -1.785156 26.390625 -0.953125 C 24.304688 -0.128906 22.046875 0.28125 19.609375 0.28125 Z M 19.609375 0.28125 "/></g></g></g><g fill="#86b817" fill-opacity="1"><g transform="translate(281.595075, 343.653493)"><g><path d="M 16.609375 -11.359375 L 16.609375 0 L 13.1875 0 L 13.1875 -11.359375 L 0.046875 -32.84375 L 3.75 -32.84375 L 15.015625 -14.40625 L 26.28125 -32.84375 L 29.75 -32.84375 Z M 16.609375 -11.359375 "/></g></g></g></svg>